<svg width="77" height="77" fill="none" xmlns="http://www.w3.org/2000/svg"><g clip-path="url(#clip0)" fill="#9681BC" stroke="#9681BC" stroke-miterlimit="10"><path d="M76.987 29.432c-.015-.09-.03-.18-.06-.255-.016-.076-.046-.15-.076-.226a.572.572 0 00-.135-.195.98.98 0 00-.166-.196c-.015-.015-.03-.045-.045-.06l-12.347-9.58V8.98c0-2.121-1.73-3.85-3.85-3.85h-13.91L40.832.812a3.815 3.815 0 00-4.677 0L30.59 5.129H16.68c-2.12 0-3.85 1.73-3.85 3.85v9.941L.498 28.5c-.015.015-.03.045-.045.06-.06.06-.12.12-.166.196-.045.06-.09.12-.135.195-.03.075-.06.15-.075.226a.765.765 0 00-.045.255c0 .03-.015.045-.015.076V73.15c0 .812.27 1.609.752 2.27.015.016.015.03.015.03.015.016.03.016.045.03A3.884 3.884 0 003.867 77h69.3a3.818 3.818 0 003.037-1.52c.016-.014.03-.014.03-.03.016-.014.016-.03.016-.03a3.844 3.844 0 00.752-2.27V29.508c0-.015-.015-.046-.015-.076zM37.735 2.828a1.222 1.222 0 011.534 0L42.23 5.13h-7.444l2.948-2.3zM4.167 74.43L37.72 48.366a1.222 1.222 0 011.535 0L72.82 74.43H4.167zm70.263-2L40.833 46.336a3.815 3.815 0 00-4.677 0L2.558 72.43V31.463l21.025 16.332a1.29 1.29 0 001.805-.226 1.29 1.29 0 00-.226-1.804L3.806 29.177l9.024-7.024v9.911a1.277 1.277 0 102.556 0V8.98c0-.707.572-1.278 1.279-1.278h43.643c.707 0 1.279.571 1.279 1.278v23.1a1.277 1.277 0 102.556 0v-9.91l9.024 7.023-21.37 16.603a1.304 1.304 0 00-.497 1.188c.06.451.36.842.797 1.023.421.165.917.105 1.278-.18l21.07-16.363-.015 40.966z"/><path d="M53.9 30.8v-5.128c0-8.512-6.887-15.4-15.4-15.4-8.512 0-15.4 6.888-15.4 15.4s6.888 15.385 15.4 15.385a1.277 1.277 0 100-2.557c-7.083 0-12.828-5.745-12.828-12.828 0-7.084 5.745-12.829 12.829-12.829 7.083 0 12.828 5.745 12.828 12.829V30.8a2.57 2.57 0 01-2.572 2.572 2.561 2.561 0 01-2.572-2.572v-5.128a1.277 1.277 0 10-2.556 0A5.125 5.125 0 0138.5 30.8a5.135 5.135 0 01-5.129-5.128 5.135 5.135 0 015.129-5.129 1.277 1.277 0 100-2.556 7.698 7.698 0 00-7.43 5.594 7.684 7.684 0 003.354 8.663 7.726 7.726 0 009.249-.872c.286 2.706 2.632 4.737 5.369 4.586 2.737-.18 4.858-2.436 4.858-5.158z"/></g><defs><clipPath id="clip0"><path fill="#fff" d="M0 0h77v77H0z"/></clipPath></defs></svg>