<svg width="87" height="87" fill="none" xmlns="http://www.w3.org/2000/svg"><path d="M34.443 76.125H9.057C4.06 76.125 0 72.064 0 67.068V19.932c0-4.996 4.061-9.057 9.057-9.057h7.255a1.82 1.82 0 011.819 1.818 1.806 1.806 0 01-1.819 1.801H9.058c-2.99 0-5.438 2.447-5.438 5.438v47.12c0 2.99 2.447 5.437 5.438 5.437h25.37a1.82 1.82 0 011.817 1.818 1.806 1.806 0 01-1.8 1.818zm25.369-43.5a1.82 1.82 0 01-1.818-1.818V19.932c0-2.99-2.447-5.438-5.438-5.438h-7.255a1.82 1.82 0 01-1.819-1.818c0-1.002.833-1.801 1.836-1.801h7.255c4.996 0 9.057 4.061 9.057 9.057v10.875a1.82 1.82 0 01-1.818 1.818z" fill="#9681BC"/><path d="M41.682 21.75h-21.75c-2.991 0-5.438-2.447-5.438-5.438V9.058a1.82 1.82 0 011.818-1.818h5.625A9.06 9.06 0 0130.807 0c4.367 0 8.037 3.11 8.887 7.256h5.624a1.82 1.82 0 011.818 1.818v7.239c-.017 2.99-2.447 5.437-5.454 5.437zM18.13 10.875v5.438a1.82 1.82 0 001.819 1.818h21.75a1.82 1.82 0 001.818-1.819v-5.437h-5.438a1.82 1.82 0 01-1.818-1.818c0-2.99-2.447-5.438-5.437-5.438-2.991 0-5.438 2.447-5.438 5.438a1.82 1.82 0 01-1.818 1.818H18.13zM63.431 87c-12.999 0-23.568-10.57-23.568-23.568 0-13 10.57-23.568 23.568-23.568 13 0 23.569 10.586 23.569 23.568C87 76.414 76.43 87 63.43 87zm0-43.5C52.438 43.5 43.5 52.455 43.5 63.432c0 10.977 8.938 19.932 19.931 19.932 10.994 0 19.95-8.938 19.95-19.932 0-10.994-8.956-19.932-19.95-19.932z" fill="#9681BC"/><path d="M63.431 76.125a1.82 1.82 0 01-1.818-1.818v-21.75a1.82 1.82 0 011.818-1.818 1.82 1.82 0 011.819 1.818v21.75a1.82 1.82 0 01-1.819 1.818z" fill="#9681BC"/><path d="M74.306 65.25h-21.75a1.82 1.82 0 01-1.818-1.818 1.82 1.82 0 011.818-1.818h21.75a1.82 1.82 0 011.819 1.818 1.82 1.82 0 01-1.819 1.818zM48.938 32.625H12.693a1.82 1.82 0 01-1.818-1.818 1.82 1.82 0 011.818-1.818h36.245a1.82 1.82 0 011.818 1.818 1.82 1.82 0 01-1.819 1.818zM38.063 43.5h-25.37a1.82 1.82 0 01-1.818-1.818 1.82 1.82 0 011.818-1.818h25.37a1.82 1.82 0 011.818 1.818 1.82 1.82 0 01-1.819 1.818zm-7.256 10.875H12.693a1.82 1.82 0 01-1.818-1.818 1.82 1.82 0 011.818-1.818h18.13a1.82 1.82 0 011.819 1.818c0 1.002-.833 1.818-1.835 1.818z" fill="#9681BC"/></svg>