<svg width="235" height="71" fill="none" xmlns="http://www.w3.org/2000/svg"><path d="M29.186 16.768c.287 0 .287-.43 0-.43s-.287.43 0 .43zm65.524 3.177c0-2.275-.657-4.079-1.97-5.411-1.294-1.333-3.14-1.989-5.52-1.989h-4.495v16.091h3.448c2.442 0 4.473-.779 6.094-2.337 1.621-1.558 2.442-3.669 2.442-6.354zm54.954 28h-15.616v-1.906c.431-.041 1.046-.103 1.847-.164.8-.062 1.354-.164 1.662-.308.533-.205.923-.533 1.17-.963.246-.43.369-.984.369-1.68V29.557h-17.648v13.078c0 .615.103 1.148.308 1.558.205.43.595.8 1.211 1.107.307.164.841.307 1.6.471.78.164 1.375.246 1.826.267v1.906h-15.616v-1.906c.431-.041 1.047-.103 1.847-.164.8-.062 1.354-.164 1.662-.308.534-.205.924-.533 1.17-.963.246-.43.369-.984.369-1.68V15.845c0-.554-.123-1.087-.349-1.538-.225-.45-.615-.82-1.19-1.107a10.32 10.32 0 00-1.724-.615c-.697-.164-1.292-.287-1.785-.307v-1.906h15.616v1.906c-.492.02-1.108.102-1.826.225-.718.144-1.252.287-1.6.39-.596.225-1.006.574-1.211 1.066a4.115 4.115 0 00-.308 1.598v11.664h17.648V15.845a3.54 3.54 0 00-.349-1.557c-.226-.472-.616-.82-1.19-1.087-.472-.225-1.067-.43-1.744-.615-.678-.164-1.252-.287-1.745-.307v-1.906h15.617v1.906c-.493.02-1.108.102-1.827.225-.718.144-1.251.287-1.6.39-.595.225-1.006.574-1.211 1.066a4.218 4.218 0 00-.308 1.619v27.057c0 .615.103 1.148.308 1.558.205.43.595.8 1.211 1.107.308.164.841.307 1.6.471.78.164 1.375.246 1.827.267v1.906h-.021zm25.446-28c0-2.275-.657-4.079-1.97-5.411-1.313-1.333-3.16-1.989-5.52-1.989h-4.494v16.091h3.468c2.442 0 4.474-.779 6.095-2.337 1.6-1.558 2.421-3.669 2.421-6.354zm13.954 28h-10.137c-2.237-3.526-4.268-6.56-6.074-9.101a200.9 200.9 0 00-5.89-7.912h-3.837v11.91a4.4 4.4 0 00.287 1.618c.205.472.616.82 1.252 1.066.308.123.882.246 1.662.349.78.102 1.478.164 2.011.184v1.907h-15.903v-1.907c.43-.04 1.046-.102 1.846-.184.801-.103 1.375-.205 1.683-.349.534-.225.903-.553 1.149-1.004.247-.451.37-1.005.37-1.68v-27.16c0-.615-.082-1.169-.267-1.64-.185-.472-.595-.84-1.252-1.087a12.281 12.281 0 00-1.724-.43 11.652 11.652 0 00-1.805-.246v-1.906h17.36c1.601 0 3.078.164 4.474.492 1.395.328 2.668.84 3.796 1.578 1.108.697 1.97 1.62 2.627 2.767.657 1.127.985 2.521.985 4.12 0 1.455-.226 2.726-.657 3.833a8.23 8.23 0 01-1.97 2.89c-.8.759-1.765 1.415-2.873 1.968a22.069 22.069 0 01-3.673 1.415 485.466 485.466 0 014.617 6.19c1.231 1.68 2.729 3.71 4.515 6.108.78 1.066 1.477 1.845 2.113 2.337a9.756 9.756 0 001.868 1.23c.451.225 1.046.41 1.724.533.677.123 1.251.184 1.723.205v1.906zm24.913-17.26c.78.882 1.375 1.846 1.765 2.912.369 1.045.574 2.275.574 3.669 0 3.32-1.231 6.047-3.694 8.199-2.462 2.173-5.499 3.238-9.131 3.238-1.683 0-3.366-.266-5.028-.779-1.683-.532-3.14-1.147-4.35-1.906l-1.15 1.927h-2.134l-.369-12.852h2.134c.451 1.599.964 3.034 1.56 4.304a14.96 14.96 0 002.339 3.588 10.572 10.572 0 003.222 2.5c1.231.615 2.647.923 4.289.923 1.231 0 2.277-.164 3.201-.472a5.698 5.698 0 002.216-1.353 5.424 5.424 0 001.252-2.05c.287-.778.41-1.7.41-2.726 0-1.496-.431-2.89-1.272-4.202-.841-1.291-2.114-2.275-3.776-2.951-1.149-.472-2.462-.964-3.94-1.538-1.477-.553-2.75-1.066-3.837-1.578-2.114-.963-3.756-2.214-4.925-3.751-1.17-1.537-1.765-3.567-1.765-6.047 0-1.435.287-2.747.882-3.997.575-1.23 1.416-2.337 2.483-3.32a11.442 11.442 0 013.633-2.153 12.584 12.584 0 014.371-.779c1.723 0 3.283.267 4.637.8a21.16 21.16 0 013.735 1.865l1.088-1.804h2.113l.206 12.463h-2.135a46.019 46.019 0 00-1.313-4.12c-.492-1.312-1.108-2.501-1.888-3.567a8.671 8.671 0 00-2.791-2.46c-1.087-.615-2.442-.922-4.022-.922-1.683 0-3.099.533-4.289 1.62-1.19 1.065-1.765 2.398-1.765 3.976 0 1.62.39 2.952 1.15 4.038.759 1.066 1.847 1.947 3.304 2.624a38.647 38.647 0 003.796 1.598 73.64 73.64 0 013.612 1.435c1.067.472 2.072.984 3.057 1.558.965.636 1.827 1.312 2.545 2.09zm-105.334 17.26H98.526c-2.237-3.526-4.268-6.56-6.074-9.101a201.073 201.073 0 00-5.89-7.912h-3.858v11.91c0 .614.103 1.147.288 1.618.205.472.615.82 1.251 1.066.308.123.883.246 1.683.349.78.102 1.457.164 2.011.184v1.907H72.013v-1.907c.431-.04 1.047-.102 1.847-.184.8-.103 1.375-.205 1.683-.349.533-.225.903-.553 1.149-1.004.246-.451.349-1.005.349-1.68v-27.16c0-.615-.082-1.169-.267-1.64-.185-.472-.595-.84-1.252-1.087a12.32 12.32 0 00-1.724-.43 10.834 10.834 0 00-1.785-.246v-1.906h17.36c1.601 0 3.079.164 4.474.492 1.396.328 2.668.84 3.797 1.578 1.108.697 1.97 1.62 2.626 2.767.657 1.127.985 2.521.985 4.12 0 1.455-.225 2.726-.656 3.833-.452 1.107-1.088 2.07-1.97 2.89-.8.759-1.745 1.415-2.873 1.968a22.082 22.082 0 01-3.674 1.415 486.757 486.757 0 014.618 6.19c1.231 1.68 2.729 3.71 4.514 6.108.78 1.066 1.478 1.845 2.114 2.337a9.782 9.782 0 001.867 1.23c.472.225 1.047.41 1.724.533.677.123 1.252.184 1.724.205v1.906zM59.885 60.264c0-.553-.164-1.004-.472-1.312-.328-.328-.78-.492-1.354-.492H56.95v3.936h.841c.595 0 1.088-.184 1.498-.574.39-.39.595-.902.595-1.558zm10.22 6.723l-2.073.144-.102-.082v-.82h-.021l-.349.349c-.123.123-.287.225-.451.328-.185.122-.39.204-.575.266-.185.062-.43.082-.78.082-.554 0-.985-.184-1.293-.553-.287-.37-.451-.902-.451-1.6v-3.053c0-.164-.02-.287-.082-.39a1.08 1.08 0 00-.246-.287c-.082-.04-.165-.082-.288-.123a2.313 2.313 0 00-.369-.04v-.431l2.134-.164.103.082v4.427c0 .451.102.8.308 1.046.205.225.451.348.738.348.247 0 .452-.04.636-.102a1.99 1.99 0 00.472-.267 1.35 1.35 0 00.308-.287c.082-.102.164-.205.206-.287v-3.628a.7.7 0 00-.083-.369.835.835 0 00-.246-.287c-.082-.061-.205-.082-.349-.102-.143 0-.328-.02-.513-.02v-.431l2.32-.164.102.082v5.063c0 .143.04.266.102.369.062.102.144.184.247.266a.583.583 0 00.266.082c.103.02.226.02.35.02v.534h-.021zm5.253-2.992c.185.164.308.328.41.533.103.205.144.45.144.738 0 .594-.226 1.066-.677 1.455-.451.369-1.026.553-1.724.553-.37 0-.718-.061-1.026-.204a4.553 4.553 0 01-.677-.37l-.123.431h-.493l-.061-2.214h.451c.041.164.103.37.226.595.102.225.246.43.41.615.164.184.37.348.616.471.226.123.492.205.8.205.41 0 .739-.102.965-.287.225-.184.349-.45.349-.8 0-.184-.041-.348-.103-.47a.969.969 0 00-.308-.35 2.15 2.15 0 00-.533-.266 4.658 4.658 0 00-.698-.225 7.026 7.026 0 01-.677-.246 2.73 2.73 0 01-.636-.37 2.05 2.05 0 01-.472-.553 1.618 1.618 0 01-.185-.778c0-.513.185-.964.575-1.333.39-.369.903-.553 1.56-.553.245 0 .512.04.779.102.267.062.472.144.636.226l.144-.328h.472l.102 2.05h-.451a1.955 1.955 0 00-.595-1.107 1.534 1.534 0 00-1.108-.43c-.35 0-.636.081-.842.266-.205.184-.308.39-.308.635 0 .184.041.349.103.492a.783.783 0 00.308.328c.123.082.287.164.492.246.206.082.431.164.74.266.286.082.553.205.8.308.225.082.45.225.615.369zm5.725 0c.185.164.308.328.41.533.103.205.145.45.145.738 0 .594-.226 1.066-.657 1.455-.452.369-1.026.553-1.724.553-.37 0-.718-.061-1.026-.204a4.548 4.548 0 01-.677-.37l-.123.431h-.493l-.061-2.214h.451c.041.164.103.37.226.595.123.225.246.43.41.615.164.184.37.348.616.471.226.123.492.205.8.205.41 0 .739-.102.965-.287.225-.184.349-.45.349-.8 0-.184-.042-.348-.103-.47a1.217 1.217 0 00-.308-.35 2.152 2.152 0 00-.534-.266 4.655 4.655 0 00-.697-.225 7.045 7.045 0 01-.677-.246 2.73 2.73 0 01-.636-.37 2.049 2.049 0 01-.473-.553 1.618 1.618 0 01-.184-.778c0-.513.184-.964.574-1.333.39-.369.903-.553 1.56-.553.246 0 .513.04.78.102.267.062.472.144.636.226l.144-.328h.472l.102 2.05h-.45a1.955 1.955 0 00-.595-1.107 1.52 1.52 0 00-1.088-.43c-.349 0-.636.081-.841.266-.206.184-.308.39-.308.635 0 .184.04.349.102.492a.783.783 0 00.308.328c.123.082.287.164.493.246.205.082.43.164.718.266.287.082.554.205.8.308.226.082.431.225.595.369zm3.817-5.862a.966.966 0 01-.246.655.768.768 0 01-.595.267.728.728 0 01-.575-.267c-.164-.184-.246-.369-.246-.594 0-.246.082-.451.246-.615a.728.728 0 01.575-.267c.246 0 .451.083.595.247a.744.744 0 01.246.574zm.821 8.977h-3.099v-.43c.103 0 .206-.02.308-.02.103 0 .205-.021.288-.041a.452.452 0 00.266-.205.701.701 0 00.082-.37V62.11a.846.846 0 00-.102-.39.874.874 0 00-.267-.286 1.116 1.116 0 00-.349-.144 1.81 1.81 0 00-.43-.061v-.43l2.256-.144.083.082v5.206c0 .144.02.267.082.37a.585.585 0 00.267.225c.102.04.184.061.287.102.082.02.184.041.308.041v.43h.02zm4.576-3.546c-.37.103-.697.226-.964.308a5.534 5.534 0 00-.78.39c-.226.143-.39.327-.513.532a1.384 1.384 0 00-.185.718c0 .348.103.615.288.779.184.164.43.246.718.246.308 0 .574-.082.82-.226a2.45 2.45 0 00.596-.533l.02-2.214zm2.258 3.444c-.206.062-.37.123-.534.184a2.069 2.069 0 01-.513.062c-.349 0-.616-.082-.8-.246-.206-.164-.329-.39-.39-.697h-.041a3.56 3.56 0 01-.903.717c-.328.164-.718.246-1.17.246-.492 0-.882-.143-1.19-.45-.308-.287-.472-.677-.472-1.148 0-.246.041-.472.103-.656.061-.205.164-.37.307-.533a1.52 1.52 0 01.431-.349c.185-.102.35-.184.493-.246.184-.082.595-.205 1.19-.41s1.005-.348 1.21-.471v-.636c0-.061-.02-.163-.04-.328a1.196 1.196 0 00-.165-.45 1.163 1.163 0 00-.369-.41c-.164-.123-.39-.185-.677-.185-.205 0-.39.041-.554.103a1.03 1.03 0 00-.349.205c0 .082.02.205.062.369.04.164.061.328.061.471a.532.532 0 01-.205.41c-.144.123-.328.184-.575.184a.557.557 0 01-.472-.225.896.896 0 01.041-1.086c.144-.185.329-.349.554-.492a2.75 2.75 0 01.698-.308c.267-.082.554-.123.821-.123.37 0 .677.02.965.082.266.041.513.164.738.328.226.164.39.37.513.656.123.267.165.636.165 1.066 0 .615 0 1.168-.021 1.64-.02.471-.02 1.004-.02 1.558 0 .164.02.307.081.41a.624.624 0 00.267.246c.062.04.165.061.308.061h.431v.451h.02zm7.695.103h-3.12v-.431c.103 0 .206-.02.33-.02a.962.962 0 00.286-.041.452.452 0 00.267-.205.701.701 0 00.082-.37v-3.3c0-.45-.102-.799-.328-1.045-.226-.246-.472-.369-.78-.369-.226 0-.451.041-.636.103-.185.082-.37.164-.513.266a1.786 1.786 0 00-.349.328c-.082.123-.144.205-.185.287v3.69c0 .143.041.266.103.369a.584.584 0 00.267.225 1.2 1.2 0 00.287.103c.103.02.226.04.328.04v.431h-3.14v-.43c.103 0 .206-.021.308-.021.103 0 .206-.02.267-.041a.453.453 0 00.267-.205.701.701 0 00.082-.369v-3.935a.72.72 0 00-.102-.41.765.765 0 00-.267-.308 4.005 4.005 0 00-.287-.123c-.124-.02-.226-.04-.37-.04v-.431l2.134-.144.082.082v.882h.041c.103-.103.226-.226.39-.37.164-.143.308-.266.452-.348.164-.102.349-.184.574-.266.226-.062.472-.103.74-.103.615 0 1.066.185 1.374.574.287.39.451.902.451 1.517v3.341c0 .164.021.267.083.37a.584.584 0 00.266.224c.103.041.185.083.267.083.082.02.185.04.308.04v.37h.041zm13.687 0h-3.817v-.472c.103 0 .247-.02.452-.04.205-.021.328-.042.41-.083.123-.061.226-.123.288-.225.061-.103.082-.246.082-.41V62.6h-4.31v3.198a.79.79 0 00.082.39c.041.102.144.184.288.266.061.04.205.082.39.123.184.04.328.061.451.061v.472h-3.817v-.472c.103 0 .246-.02.452-.04.205-.021.328-.042.41-.083.123-.061.226-.123.287-.225.062-.103.082-.246.082-.41v-6.642a.697.697 0 00-.082-.369.602.602 0 00-.287-.266 2.123 2.123 0 00-.431-.144c-.164-.04-.308-.061-.431-.082v-.471h3.817v.471c-.123 0-.267.02-.451.062-.185.04-.308.061-.39.102-.144.062-.247.144-.288.267a1.199 1.199 0 00-.082.39v2.849h4.31V59.26a.838.838 0 00-.082-.39.527.527 0 00-.288-.266 2.102 2.102 0 00-.431-.144c-.164-.04-.307-.061-.431-.082v-.471h3.817v.471c-.123 0-.266.02-.451.062-.185.04-.308.061-.39.102-.144.062-.246.144-.287.267a1.199 1.199 0 00-.082.39v6.62c0 .144.02.287.082.39.041.102.143.184.287.266.082.041.205.082.39.123.185.041.328.061.451.061v.451zm4.72-3.547c-.369.103-.698.226-.964.308a4.508 4.508 0 00-.78.39c-.226.143-.39.327-.513.532a1.385 1.385 0 00-.185.718c0 .348.103.615.287.779.185.164.431.246.719.246.308 0 .574-.082.821-.226.225-.143.43-.328.595-.533l.02-2.214zm2.257 3.444a5.287 5.287 0 00-.533.184 2.066 2.066 0 01-.513.062c-.349 0-.616-.082-.821-.246-.205-.164-.328-.39-.39-.697h-.041c-.287.307-.574.553-.903.717-.328.164-.718.246-1.169.246-.472 0-.883-.143-1.191-.45-.287-.287-.451-.677-.451-1.148 0-.246.041-.472.102-.656a1.41 1.41 0 01.308-.533c.103-.123.247-.246.431-.349.185-.102.349-.184.493-.246.184-.082.595-.205 1.19-.41s1.005-.348 1.211-.471v-.636c0-.061-.021-.163-.041-.328a1.19 1.19 0 00-.165-.45 1.163 1.163 0 00-.369-.41c-.164-.123-.39-.185-.677-.185-.205 0-.39.041-.554.103a1.503 1.503 0 00-.37.205c0 .082.021.205.062.369.041.164.062.328.062.471a.532.532 0 01-.206.41c-.143.123-.328.184-.574.184a.556.556 0 01-.472-.225.893.893 0 01.041-1.086c.143-.185.328-.349.554-.492.185-.123.431-.226.718-.308.267-.082.554-.123.821-.123.369 0 .677.02.944.082.267.041.513.164.739.328.225.164.39.37.492.656.123.267.185.636.185 1.066 0 .615 0 1.168-.021 1.64-.02.471-.02 1.004-.02 1.558 0 .164.02.307.082.41a.622.622 0 00.267.246c.061.04.164.061.308.061h.43v.451h.041zm3.161-8.875a.963.963 0 01-.247.655.767.767 0 01-.595.267.727.727 0 01-.574-.267c-.164-.184-.246-.369-.246-.594 0-.246.082-.451.246-.615a.727.727 0 01.574-.267c.247 0 .452.083.616.247a.804.804 0 01.226.574zm.8 8.977h-3.099v-.43c.103 0 .206-.02.308-.02.103 0 .205-.021.287-.041a.449.449 0 00.267-.205.697.697 0 00.082-.37V62.11c0-.144-.041-.266-.082-.39a.861.861 0 00-.267-.286 1.117 1.117 0 00-.348-.144 1.818 1.818 0 00-.431-.061v-.43l2.257-.144.082.082v5.206a.71.71 0 00.082.37.588.588 0 00.267.225c.103.04.185.061.287.102.082.02.185.041.308.041v.43zm5.684-5.554c0 .225-.061.41-.164.574a.552.552 0 01-.492.266c-.247 0-.431-.062-.554-.184a.577.577 0 01-.185-.41c0-.103 0-.185.02-.267.021-.082.021-.164.041-.225-.205 0-.43.082-.718.246a2.05 2.05 0 00-.697.697v3.71c0 .164.02.266.082.369a.58.58 0 00.266.225c.103.041.247.082.411.102.164.021.328.041.451.041v.431h-3.386v-.43c.103 0 .206-.021.308-.021.103 0 .205-.02.267-.041a.455.455 0 00.267-.205.707.707 0 00.082-.369V62.13c0-.144-.041-.267-.082-.39a.98.98 0 00-.267-.307c-.082-.041-.185-.082-.287-.123-.124-.02-.226-.041-.37-.041v-.43l2.134-.144.082.082v.902h.042a2.98 2.98 0 01.902-.8c.329-.184.637-.266.903-.266.267 0 .493.082.657.266.205.144.287.37.287.677zm9.481-1.292c0-.553-.164-1.004-.493-1.312-.328-.328-.779-.492-1.354-.492h-1.108v3.936h.841c.595 0 1.088-.184 1.498-.574.411-.39.616-.902.616-1.558zm3.406 6.846h-2.483a58.853 58.853 0 00-1.498-2.234 51.457 51.457 0 00-1.436-1.927h-.944v2.911c0 .144.02.287.082.39.041.123.144.205.308.266.082.02.226.062.41.082.185.02.349.041.493.041v.472h-3.899v-.472c.102 0 .246-.02.451-.04.205-.021.329-.042.411-.083a.685.685 0 00.287-.246c.062-.102.082-.246.082-.41v-6.64c0-.144-.02-.287-.062-.41-.041-.123-.143-.205-.307-.267a1.672 1.672 0 00-.431-.102 1.972 1.972 0 00-.452-.062v-.471h4.248c.39 0 .759.041 1.088.123.349.082.656.205.923.39.267.163.493.389.636.676.164.287.247.615.247 1.004 0 .349-.062.677-.165.943a1.866 1.866 0 01-.492.718 2.46 2.46 0 01-.698.471c-.267.144-.574.246-.903.349.452.594.821 1.106 1.129 1.516.308.41.677.902 1.108 1.497a3 3 0 00.513.574c.164.123.308.225.452.307.123.062.266.103.43.123.165.02.308.041.431.041v.472h.041zm4.228-3.935c0-.246-.021-.492-.062-.779-.041-.287-.102-.512-.205-.697a1.213 1.213 0 00-.41-.492c-.165-.123-.39-.184-.678-.184-.451 0-.841.184-1.128.574-.308.368-.472.901-.493 1.578h2.976zm1.436 2.44a3.234 3.234 0 01-1.067 1.209c-.451.307-.964.45-1.559.45-.513 0-.965-.082-1.355-.266a2.686 2.686 0 01-.964-.738 3.185 3.185 0 01-.554-1.086 4.476 4.476 0 01-.185-1.312c0-.41.061-.82.205-1.23a3.43 3.43 0 01.575-1.086c.246-.308.554-.554.923-.738.37-.185.78-.287 1.231-.287.472 0 .862.082 1.191.225.328.144.595.349.8.595.205.246.349.533.451.86.103.328.144.677.144 1.066v.43h-4.248c0 .41.041.8.123 1.149.082.348.206.635.39.902.164.246.39.45.657.594.267.144.595.226.985.226s.718-.082.985-.267c.287-.184.554-.492.821-.963l.451.266zm5.171-1.62c.185.164.308.328.411.533.103.205.144.45.144.738 0 .594-.226 1.066-.657 1.455-.452.369-1.026.553-1.724.553-.369 0-.718-.061-1.026-.204a4.554 4.554 0 01-.677-.37l-.123.431h-.493l-.061-2.214h.451c.041.164.103.37.226.595.123.225.246.43.41.615.164.184.37.348.595.471.247.123.513.205.801.205.41 0 .738-.102.964-.287.226-.184.349-.45.349-.8 0-.184-.041-.348-.103-.47a1.63 1.63 0 00-.307-.35 2.157 2.157 0 00-.534-.266 4.644 4.644 0 00-.698-.225 7.033 7.033 0 01-.677-.246 2.74 2.74 0 01-.636-.37 2.042 2.042 0 01-.472-.553 1.62 1.62 0 01-.185-.778c0-.513.206-.964.575-1.333.39-.369.903-.553 1.56-.553.246 0 .513.04.779.102.267.062.472.144.637.226l.143-.328h.472l.103 2.05h-.452a1.953 1.953 0 00-.595-1.107 1.568 1.568 0 00-1.108-.43c-.349 0-.636.081-.841.266-.206.184-.308.39-.308.635 0 .184.041.349.102.492a.79.79 0 00.308.328c.123.082.288.164.493.246.205.082.431.164.739.266.287.082.554.205.8.308.246.082.451.225.615.369zm5.767-.82c0-.246-.021-.492-.062-.779-.041-.287-.102-.512-.205-.697a1.394 1.394 0 00-.41-.492c-.164-.123-.39-.184-.678-.184-.451 0-.841.184-1.128.574-.308.368-.472.901-.493 1.578h2.976zm1.436 2.44a3.11 3.11 0 01-1.087 1.209c-.452.307-.965.45-1.56.45-.513 0-.964-.082-1.354-.266a2.885 2.885 0 01-.965-.738 3.203 3.203 0 01-.554-1.086 4.51 4.51 0 01-.184-1.312c0-.41.061-.82.205-1.23a3.45 3.45 0 01.574-1.086c.247-.308.554-.554.924-.738.369-.185.78-.287 1.231-.287.472 0 .862.082 1.19.225.329.144.595.349.801.595.205.246.348.533.451.86.103.328.144.677.144 1.066v.43h-4.248c0 .41.041.8.123 1.149.082.348.205.635.369.902.164.246.39.45.657.594.267.144.595.226.964.226.39 0 .719-.082 1.006-.267.287-.184.554-.492.821-.963l.492.266zm4.535-2.05c-.369.102-.697.225-.964.307a4.616 4.616 0 00-.78.39c-.226.143-.39.327-.513.532a1.385 1.385 0 00-.185.718c0 .348.103.615.288.779.184.164.431.246.718.246.308 0 .575-.082.821-.226.226-.143.431-.328.595-.533l.02-2.214zm2.258 3.443c-.205.062-.37.123-.534.184a1.95 1.95 0 01-.513.062c-.349 0-.615-.082-.821-.246-.205-.164-.328-.39-.39-.697h-.041c-.287.307-.574.553-.903.717-.328.164-.718.246-1.169.246-.472 0-.883-.143-1.19-.45-.308-.287-.472-.677-.472-1.148 0-.246.041-.472.102-.656a1.39 1.39 0 01.308-.533c.103-.123.246-.246.431-.349.185-.102.349-.184.492-.246.185-.082.596-.205 1.191-.41.595-.205 1.005-.348 1.21-.471v-.636c0-.061-.02-.163-.041-.328a1.188 1.188 0 00-.164-.45 1.163 1.163 0 00-.369-.41c-.164-.123-.39-.185-.677-.185-.206 0-.39.041-.554.103a1.466 1.466 0 00-.37.205c0 .082.021.205.062.369.041.164.061.328.061.471a.53.53 0 01-.205.41c-.144.123-.328.184-.574.184-.226 0-.37-.081-.472-.225a.877.877 0 01-.144-.512c0-.205.061-.39.205-.574.144-.185.328-.349.554-.492a2.91 2.91 0 01.718-.308c.267-.082.554-.123.801-.123.369 0 .677.02.964.082.267.041.513.164.739.328a1.5 1.5 0 01.513.656c.123.267.164.636.164 1.066 0 .615 0 1.168-.02 1.64-.021.471-.021 1.004-.021 1.558 0 .164.021.307.082.41a.627.627 0 00.267.246c.062.04.164.061.308.061h.431v.451h.041zm5.746-5.452c0 .225-.062.41-.165.574a.55.55 0 01-.492.266c-.246 0-.431-.062-.554-.184a.58.58 0 01-.185-.41c0-.103 0-.185.021-.267.02-.082.02-.164.041-.225-.205 0-.452.082-.718.246a2.25 2.25 0 00-.698.697v3.71c0 .164.02.266.082.369a.583.583 0 00.267.225c.102.041.246.082.41.102.164.021.328.041.452.041v.431h-3.386v-.43c.102 0 .205-.021.307-.021.103 0 .206-.02.267-.041a.455.455 0 00.267-.205.697.697 0 00.082-.369V62.13a.825.825 0 00-.082-.39.771.771 0 00-.267-.307c-.082-.041-.185-.082-.287-.123-.123-.02-.226-.041-.369-.041v-.43l2.134-.144.082.082v.902h.041c.267-.349.574-.615.903-.8.328-.184.636-.266.903-.266.266 0 .492.082.656.266.164.185.288.37.288.677zm3.283 5.739c-.923 0-1.662-.308-2.175-.922-.534-.615-.78-1.435-.78-2.48 0-.452.082-.862.205-1.272.144-.389.349-.737.616-1.065a2.88 2.88 0 01.964-.738c.39-.185.801-.287 1.252-.287.636 0 1.129.143 1.539.45.39.308.595.718.595 1.23 0 .226-.061.41-.164.575-.103.163-.287.245-.513.245-.267 0-.451-.061-.595-.204a.54.54 0 01-.205-.431c0-.184.02-.39.082-.594.061-.205.082-.349.082-.451a.514.514 0 00-.349-.267 2.022 2.022 0 00-.492-.061c-.206 0-.411.04-.596.143-.184.082-.369.246-.554.492-.164.226-.287.512-.39.881-.102.37-.143.8-.143 1.312 0 .8.184 1.456.533 1.968.349.513.821.759 1.396.759.431 0 .78-.103 1.046-.308.288-.205.554-.512.801-.922l.41.266c-.287.513-.657.923-1.129 1.21-.451.307-.923.471-1.436.471zm10.035-.184h-3.14v-.431c.103 0 .205-.02.328-.02.123 0 .226-.021.308-.041a.455.455 0 00.267-.205.707.707 0 00.082-.37v-3.3c0-.45-.103-.799-.328-1.045a.983.983 0 00-.78-.369c-.226 0-.431.041-.636.103-.185.082-.37.164-.513.266a1.244 1.244 0 00-.329.328c-.082.102-.143.205-.184.267v3.69c0 .143.02.266.082.368a.578.578 0 00.267.226c.102.04.184.081.287.102.102.02.226.041.328.041v.43h-3.14v-.43c.103 0 .206-.02.308-.02.103-.021.205-.021.267-.041a.455.455 0 00.267-.205.707.707 0 00.082-.37v-7.44a1.28 1.28 0 00-.103-.451c-.061-.144-.143-.267-.266-.328-.083-.062-.206-.102-.411-.123-.205-.02-.349-.041-.472-.041v-.41l2.36-.143.082.102V61.7h.021l.39-.39c.123-.102.266-.225.451-.348.164-.102.349-.184.575-.266a2.83 2.83 0 01.759-.103c.574 0 1.005.185 1.313.554.308.348.452.881.452 1.557v3.342c0 .164.02.266.082.369a.58.58 0 00.266.225 1.863 1.863 0 00.575.123v.349h.103zm9.891-4.223c.184.225.328.45.431.717.102.267.143.554.143.902 0 .82-.307 1.476-.903 2.01-.595.532-1.354.799-2.236.799-.411 0-.821-.062-1.232-.185a4.663 4.663 0 01-1.067-.472l-.287.472h-.513l-.082-3.136h.533c.103.39.226.738.39 1.045.144.328.329.615.575.882.226.266.492.45.78.615a2.45 2.45 0 001.046.225c.308 0 .554-.041.78-.123.226-.082.411-.184.534-.328.143-.143.246-.307.307-.512a2.12 2.12 0 00.103-.677c0-.369-.103-.717-.308-1.025-.205-.307-.513-.553-.923-.717-.287-.123-.595-.226-.965-.37a17.333 17.333 0 01-.944-.389c-.513-.225-.923-.532-1.21-.922-.288-.369-.431-.881-.431-1.476 0-.348.061-.676.205-.984a2.33 2.33 0 01.616-.8 2.75 2.75 0 01.882-.532 3.16 3.16 0 011.067-.184c.431 0 .8.061 1.149.205.329.123.636.286.924.45l.266-.45h.513l.041 3.054h-.513a11.373 11.373 0 00-.328-1.005 3.43 3.43 0 00-.451-.86 2.091 2.091 0 00-.678-.595 2.054 2.054 0 00-.985-.226c-.41 0-.759.144-1.046.39a1.279 1.279 0 00-.431.963c0 .39.082.718.287.984.185.267.452.472.801.636.307.164.636.287.923.39.308.102.595.225.882.348.267.123.513.245.739.389.226.143.431.307.616.492zm6.423.984c0-.328-.021-.677-.103-1.025a3.249 3.249 0 00-.287-.922c-.144-.267-.308-.492-.554-.656-.226-.164-.493-.246-.821-.246-.328 0-.616.082-.841.246a1.69 1.69 0 00-.575.676 2.578 2.578 0 00-.287.902 5.416 5.416 0 00-.082.984c0 .41.041.8.102 1.148.062.348.164.676.329.943.143.287.328.492.554.656.225.163.492.245.821.245.533 0 .964-.266 1.292-.778.308-.533.452-1.25.452-2.173zm1.354-.02c0 .45-.082.901-.205 1.332-.144.43-.349.8-.616 1.107a2.904 2.904 0 01-1.026.779c-.39.164-.841.246-1.334.246-.41 0-.8-.082-1.169-.226a2.647 2.647 0 01-.985-.676 2.958 2.958 0 01-.677-1.066 3.732 3.732 0 01-.247-1.394c0-1.005.288-1.825.883-2.46.574-.635 1.334-.963 2.278-.963.882 0 1.641.307 2.216.902.595.614.882 1.414.882 2.418zm3.899 3.443c-.923 0-1.662-.308-2.175-.922-.534-.615-.78-1.435-.78-2.48 0-.452.062-.862.205-1.272.144-.389.349-.737.616-1.065a2.89 2.89 0 01.964-.738c.39-.185.801-.287 1.252-.287.636 0 1.149.143 1.539.45.39.308.595.718.595 1.23 0 .226-.041.41-.143.575-.103.163-.288.245-.513.245-.267 0-.452-.061-.595-.204a.541.541 0 01-.206-.431c0-.184.021-.39.083-.594.061-.205.082-.349.082-.451a.514.514 0 00-.349-.267 2.03 2.03 0 00-.493-.061c-.205 0-.41.04-.595.143-.185.082-.369.246-.554.492-.164.226-.287.512-.39.881-.102.37-.143.8-.143 1.312 0 .8.184 1.456.533 1.968.349.513.821.759 1.396.759.43 0 .779-.103 1.046-.308.287-.205.554-.512.78-.922l.41.266c-.287.513-.656.923-1.128 1.21-.472.307-.944.471-1.437.471zm5.582-9.163a.967.967 0 01-.246.656.77.77 0 01-.596.267.727.727 0 01-.574-.267c-.164-.184-.246-.369-.246-.594 0-.246.082-.451.246-.615a.727.727 0 01.574-.267c.247 0 .452.083.596.247a.744.744 0 01.246.574zm.8 8.979h-3.098v-.431c.102 0 .205-.02.307-.02.103 0 .206-.021.288-.041a.45.45 0 00.266-.205.697.697 0 00.082-.37V62.11a.853.853 0 00-.102-.39.882.882 0 00-.267-.286 1.113 1.113 0 00-.349-.144 1.81 1.81 0 00-.431-.061v-.43l2.258-.144.082.082v5.206c0 .144.02.267.082.37.061.102.143.163.287.225.082.04.185.061.267.102.102.02.185.041.308.041v.43h.02zm4.823-3.936c0-.246-.021-.492-.062-.779-.041-.287-.103-.512-.205-.697a1.208 1.208 0 00-.411-.492c-.164-.123-.389-.184-.677-.184-.451 0-.841.184-1.128.574-.308.368-.472.901-.493 1.578h2.976zm1.436 2.44a3.112 3.112 0 01-1.088 1.209c-.451.307-.964.45-1.559.45-.513 0-.965-.082-1.355-.266a2.89 2.89 0 01-.964-.738 3.203 3.203 0 01-.554-1.086 4.51 4.51 0 01-.185-1.312c0-.41.062-.82.205-1.23a3.94 3.94 0 01.575-1.086c.246-.308.554-.554.923-.738a2.72 2.72 0 011.232-.287c.472 0 .862.082 1.19.225.328.144.595.349.821.595.205.246.349.533.451.86.103.328.144.677.144 1.066v.43h-4.248c0 .41.041.8.123 1.149.082.348.205.635.39.902.164.246.39.45.657.594.267.144.595.226.985.226s.718-.082.985-.267c.287-.184.554-.492.821-.963l.451.266zm4.905 1.209a10.53 10.53 0 01-.801.307c-.246.082-.554.123-.923.123-.534 0-.903-.123-1.129-.41-.226-.266-.328-.656-.328-1.148v-4.325h-1.149v-.615h1.19v-1.988h1.19v1.988h1.826v.615h-1.826v3.567c0 .266 0 .492.021.676.02.185.061.328.143.472a.604.604 0 00.308.287c.144.061.328.102.554.102.103 0 .267 0 .472-.02.205-.02.349-.041.452-.082v.45zm.779 2.377c0-.225.062-.39.185-.533a.555.555 0 01.452-.205c.143 0 .266.02.348.082.103.062.185.123.267.205a.98.98 0 01.205.267c.082.123.123.205.185.287.226-.123.472-.43.78-.902.287-.492.513-.922.656-1.291-.41-1.025-.779-1.948-1.108-2.747-.328-.8-.677-1.64-1.046-2.5a1.008 1.008 0 00-.411-.472 1.616 1.616 0 00-.574-.205v-.43h2.914v.45c-.123 0-.288.041-.472.082-.185.041-.267.103-.267.164 0 .02 0 .062.021.123l.061.185c.164.43.411 1.045.759 1.844.329.8.595 1.456.78 1.927.205-.471.39-.943.616-1.435.205-.492.451-1.066.697-1.742.021-.082.083-.205.124-.348a.939.939 0 00.082-.37c0-.122-.103-.204-.288-.307a1.745 1.745 0 00-.554-.184v-.41h2.381v.39c-.123.02-.308.102-.513.225-.205.123-.37.307-.472.553-.513 1.189-.965 2.275-1.375 3.26-.39.983-.698 1.7-.903 2.172-.267.615-.513 1.086-.739 1.414a5.752 5.752 0 01-.636.8 2.11 2.11 0 01-.534.369 1.428 1.428 0 01-.513.102c-.328 0-.595-.082-.8-.246-.205-.184-.308-.369-.308-.574zm-163.941-2.09h-2.483a59.458 59.458 0 00-1.498-2.235 51.927 51.927 0 00-1.437-1.927h-.944v2.911c0 .144.02.287.062.39.04.123.144.205.308.266.082.02.205.062.41.082.185.02.349.041.493.041v.472h-3.9v-.472c.103 0 .247-.02.452-.04.185-.021.328-.042.41-.083a.683.683 0 00.288-.246c.061-.102.082-.246.082-.41v-6.64c0-.144-.02-.287-.062-.41-.04-.123-.143-.205-.307-.267a1.705 1.705 0 00-.41-.102 1.968 1.968 0 00-.452-.062v-.471h4.247c.39 0 .76.041 1.088.123.349.082.657.205.923.39.267.163.493.389.637.676.164.287.246.615.246 1.004 0 .349-.062.677-.164.943a2.08 2.08 0 01-.472.718 2.467 2.467 0 01-.698.471c-.267.144-.575.246-.903.349.452.594.82 1.106 1.129 1.516.308.41.656.902 1.108 1.497a3 3 0 00.513.574c.164.123.308.225.451.307.123.062.247.103.431.123.164.02.308.041.431.041v.472h.02z" fill="#fff"/><path fill-rule="evenodd" clip-rule="evenodd" d="M17.346 24.045a19.898 19.898 0 00-1.211 8.67c.533 6.395 4.33 12.545 9.973 15.66.8.451 1.621.82 2.462 1.128l-.82 3.095c-8.086-2.788-14.057-10.782-14.796-19.616a23.087 23.087 0 011.272-9.757l3.12.82z" fill="#fff"/><path fill-rule="evenodd" clip-rule="evenodd" d="M17.284 28.042l2.442-2.091 2.134-.37.144.472-3.96 2.296.02.656-.452.103-.41-.554.082-.512zm9.111-3.915l-.39.245-.861-.922.266-.8.329-.143.533.738.123.882zm.247.635l.061-.697.329-.102.43.45-.533.39-.287-.041zm9.008-3.013l.144.553-1.436 1.517-.37.041-.492-.574.287-.635 1.867-.902zm6.136-4.817l-.102-.677-.267.041-.247.43.39.575.226-.37zm5.028 20.047l3.755 3.607.328-.143-.04-.246.43-.103-1.682-1.414.533-.225-.123-.287-3.324-1.845.123.656zM31.567 58.09c-9.378.8-18.08-2.951-23.969-9.388l.39-1.721.944-.062c3.386 4.49 8.065 8.015 13.339 9.84 2.934 1.004 6.197 1.536 9.296 1.331zM26.683.103c13.974-1.168 26.472 7.707 30.35 20.62a30.505 30.505 0 011.129 5.925l.02.307A29.088 29.088 0 0156.93 37.84c-1.108 3.238-2.913 6.21-5.52 8.711a26.62 26.62 0 01-5.356 3.915 25.892 25.892 0 01-10.363 3.116c-7.654.635-14.487-3.341-18.612-9.327l.123-.184 1.765.04.636 1.087 1.293.882 1.293-.554 1.067 2.952 1.929 1.373.472-.102 1.108-1.25 2.4.348 1.17-.041.144-.676.185-.984h1.087l.513.655.698.226 2.175-.082 1.786-.922.574-.984 1.806-.082.328-.492.02-1.968-.41-.246 1.868-1.312 2.257 1.578 1.519-.287.677.575.78-.595.43-.922.965 2.48-.492.102-.226.656.533 1.046a18.495 18.495 0 001.622-.943l.246-1.312-.657-4.08-2.134-2.93-1.272.287.164.512-1.765-.061-.144-6.6 2.627-2.604v-1.004l-.595-1.886 1.047-.349-.534-1.414.205-.471 2.175 4.899 3.448 1.906.144-.308-1.827-4.14-2.483-1.702 1.026-2.09-1.149-2.829.328-.676-.225-.328-1.58.287-.329-1.763 1.088-.861.061-.39-1.21-1.147-.924.697.206.533-.124.204h-.554l-2.236 2.05-.657 1.415.903.225-.144.595-.78-.082-.574 1.332.04.45-.143.165-.882-.37-1.026.636-.123.615-.534.37-.8.04-1.58.963-.103.554.185.697-1.108.82.102.779-.226.061-1.354-1.148-1.17.205-.123.246.062.554-.862.02-.657.205-1.785 1.763 1.005-2.378.062-.656-1.026-.84-1.354-.226-.575.677.267.266-1.457 1.312-.308.718.144.266-.226.287-1.129.02-.164.226.041.82-1.252.102-.944-1.29h-.287l-1.17 1.557-.225 1.107.39.594-.041.226-.37.348-1.826-2.398-.185.307.328.636-.39.307-1.149-.758-1.19.02-.328-.799-.288-.123-.78 1.168-1.538-.02c0-.267.02-.513.02-.779l1.17-.061.205-1.784-.78-1.64-.143-.02c1.21-5.965 4.76-11.151 9.706-14.492a24.306 24.306 0 00-12.826 15.148c.698-7.44 4.74-14.02 10.712-18.08A25.867 25.867 0 007.62 24.087c1.005-7.441 5.191-13.98 11.245-18.059-9.953 4.755-16.418 15.29-15.433 26.913.288 3.443 1.314 6.784 2.873 9.839l-.143.205-.329.04-.533-.286-1.416.922A28.862 28.862 0 01.108 31.588C-1.267 15.538 10.635 1.456 26.683.103z" fill="#fff"/></svg>