<svg width="28" height="28" fill="none" xmlns="http://www.w3.org/2000/svg"><path d="M2.466 6.067A13.94 13.94 0 00.46 10.43h6.368L2.466 6.067zM10.08.56a13.95 13.95 0 00-4.423 2.197l4.422 4.423V.56zM5.986 25.476a13.928 13.928 0 004.093 1.963v-6.056l-4.093 4.093zM.621 18.134c.463 1.5 1.173 2.89 2.08 4.128l4.127-4.128H.621z" fill="#29337A"/><path d="M2.697 5.742c-.079.107-.156.216-.231.325l4.363 4.364H.461c-.104.392-.188.793-.257 1.199h8.38L2.697 5.742zM5.66 25.245c.107.08.217.155.326.231l4.093-4.093v6.056c.393.115.793.214 1.2.294v-8.105L5.66 25.245zm-5.35-8.31c.087.406.19.806.311 1.199h6.207L2.7 22.262a14.1 14.1 0 001.488 1.721l7.048-7.048H.31zM10.08.56v6.62L5.656 2.758c-.61.453-1.18.956-1.708 1.501l7.329 7.33V.265c-.406.08-.806.18-1.199.294z" fill="#fff"/><path d="M10.08 18.091l-.043.043h.042v-.043zm1.156-1.156h.042v-.043l-.042.043zm5.388-5.305h-.04v.04l.04-.04zm-6.504-1.2l-.04-.04v.04h.04zm1.158 1.158v.041h.041l-.04-.041z" fill="#D32030"/><path d="M17.782 24.34v3.138c1.5-.42 2.9-1.082 4.15-1.944l-3.4-3.4c-.272.954-.371 1.448-.75 2.206zm.768-17.928L22.262 2.7a13.946 13.946 0 00-4.48-2.18v3.224c.437.874.474 1.539.768 2.667zm6.692 15.931a13.962 13.962 0 002.137-4.21h-6.346l4.21 4.21zM27.54 10.43a13.935 13.935 0 00-2.063-4.444L21.03 10.43h6.508z" fill="#252F6C"/><path d="M19.367 17.172l.962.962 4.605 4.605c.105-.13.209-.261.309-.396l-4.21-4.209h6.346c.121-.392.224-.793.31-1.2h-8.232c-.013.17-.074.069-.09.238zm-.962-10.058l4.173-4.174a14.62 14.62 0 00-.316-.24L18.55 6.412c.038.147-.181.552-.145.702zm-.623-3.627V.521c-.392-.11-.792-.203-1.199-.28v1.447c.446.484.846 1.092 1.2 1.8zm1.491 8.143h8.523a13.88 13.88 0 00-.256-1.2h-6.508l4.445-4.444a14.073 14.073 0 00-1.454-1.756l-5.006 5.007c.134.908.195 1.435.256 2.392zm-.943 10.3l3.603 3.604c.6-.413 1.163-.872 1.69-1.37l-4.74-4.74c-.15.876-.33 1.723-.553 2.506zm-1.746 4.215v1.613c.406-.076.806-.17 1.198-.28V24.34c-.353.708-.753 1.322-1.198 1.805z" fill="#E7E7E7"/><path d="M19.017 9.237l5.006-5.007c-.45-.463-.934-.893-1.445-1.29l-3.934 3.934c.175.731.254 1.568.373 2.363z" fill="#D71F28"/><path d="M13.301.017zM14 28zm0 0c.883 0 1.746-.085 2.583-.242v-1.613C15.848 26.942 14.988 28 14 28z" fill="#D32030"/><path d="M27.796 11.63h-8.413a37.608 37.608 0 01-.04 5.305h8.347a14.02 14.02 0 00.106-5.305zm-8.429 5.542c-.078.827-.349 1.472-.483 2.252l4.739 4.74c.469-.445.907-.92 1.311-1.425l-4.605-4.605-.962-.962z" fill="#D71F28"/><path d="M16.584 1.792V.242C15.746.086 14.884 0 14 0c.988 0 1.848.996 2.584 1.792z" fill="#D32030"/><path d="M17.782 24.946c.379-.76.704-1.633.976-2.587l-.976-.975v3.562zm1.097-18.863c-.295-1.128-.66-2.154-1.097-3.028v4.124l1.097-1.096z" fill="#29337A"/><path d="M19.639 17.443c.016-.169.03-.338.044-.508h-.553l.509.508zM17.782 7.18V3.054c-.353-.708-.753-1.316-1.199-1.8v7.68l2.408-2.408c-.036-.15-.074-.298-.112-.445L17.782 7.18zm-1.158 4.45h3.1a33.782 33.782 0 00-.293-2.807l-2.807 2.806zm-.04 15.114c.446-.484.845-1.091 1.198-1.799v-3.562l.976.976c.224-.784.411-1.622.563-2.498l-2.737-2.738v9.621z" fill="#fff"/><path d="M16.584 26.744v-9.62l2.737 2.737c.134-.78.24-1.59.318-2.418l-.509-.508h.553c.138-1.744.151-3.55.04-5.306h-3.1l2.807-2.806a26.91 26.91 0 00-.439-2.296l-2.407 2.408V1.256C15.848.459 14.988 0 14 0a14.096 14.096 0 00-2.722.266v11.322L3.95 4.26c-.45.465-.869.96-1.252 1.483l4.688 4.689 1.2 1.199H.203A14.103 14.103 0 000 14c0 1.007.109 1.988.31 2.935h10.926l-7.048 7.048c.461.453.953.876 1.473 1.262l5.617-5.617v8.105A14.1 14.1 0 0014 28c.988 0 1.848-.459 2.584-1.256z" fill="#E51D35"/></svg>