<svg width="84" height="98" fill="none" xmlns="http://www.w3.org/2000/svg"><path d="M70.197 93.851c0 .705-.6 1.269-1.34 1.269H15.123c-.74 0-1.34-.564-1.34-1.269v-2.78c0-.704.6-1.268 1.34-1.268h53.712c.74 0 1.34.564 1.34 1.269v2.78h.02zm-1.34-6.908h-.32l4.1-47.872c.06-.785-.56-1.49-1.4-1.55-.84-.061-1.58.523-1.64 1.308l-4.121 48.094H18.504l-4.12-48.114c-.06-.785-.8-1.37-1.64-1.309-.841.06-1.461.766-1.401 1.551l4.1 47.892h-.32c-2.42 0-4.4 1.853-4.4 4.149v2.78c0 2.275 1.98 4.128 4.4 4.128h53.713c2.421 0 4.401-1.853 4.401-4.129v-2.779c.02-2.296-1.96-4.149-4.38-4.149zm12.042-61.687l-.92 4.934c-.16.846-.94 1.47-1.86 1.47H5.88c-.92 0-1.7-.624-1.86-1.47l-.92-4.934c-.1-.524.06-1.048.42-1.45.36-.403.9-.645 1.46-.645h74.078c.56 0 1.1.221 1.46.644.36.423.48.927.38 1.45zM25.486 6.103l6.942-3.082c.22-.1.46-.14.7-.14.18 0 .38.02.56.1.42.14.74.423.94.785.38.766.04 1.692-.78 2.055l-6.942 3.081c-.22.1-.46.141-.7.141-.64 0-1.22-.342-1.48-.886-.4-.765-.06-1.692.76-2.054zm57.353 15.85a5.106 5.106 0 00-3.8-1.672H16.904v-5.277c0-.966.6-1.873 1.54-2.275l4.521-2.014c.86.765 2 1.208 3.221 1.208.7 0 1.38-.141 2-.423l6.942-3.081c2.34-1.048 3.36-3.686 2.24-5.881-.54-1.068-1.48-1.873-2.66-2.276a4.944 4.944 0 00-3.6.161l-6.942 3.082c-1.92.845-2.941 2.779-2.641 4.672l-4.401 1.954c-2 .886-3.28 2.799-3.28 4.873v5.277H4.96c-1.46 0-2.84.604-3.801 1.672C.22 23.02-.18 24.39.08 25.759L1 30.693c.42 2.236 2.48 3.847 4.881 3.847h72.217c2.4 0 4.461-1.611 4.882-3.847l.92-4.934a4.42 4.42 0 00-1.06-3.806z" fill="#9681BC"/><path d="M60.094 47.228l-.6 6.887H24.486l-.6-6.887h36.208zm-35.788 9.767h35.368c1.48 0 2.74-1.087 2.86-2.477l.621-7.23c.06-.745-.22-1.49-.76-2.054a3.019 3.019 0 00-2.12-.866h-36.61c-.8 0-1.56.322-2.12.866-.54.564-.82 1.309-.76 2.054l.62 7.23c.16 1.37 1.42 2.477 2.9 2.477z" fill="#9681BC"/></svg>