<svg width="81" height="98" fill="none" xmlns="http://www.w3.org/2000/svg"><path d="M17.631 12.373c5.845-5.899 13.639-9.26 21.953-9.491.289 0 .578-.02.906-.02.328 0 .618 0 .907.02 8.314.23 16.107 3.592 21.952 9.49 5.845 5.898 9.067 13.64 9.067 21.806 0 6.666-1.698 13.583-5.035 20.557-2.7 5.629-6.481 11.296-11.208 16.849C49.5 79.403 42.824 84.763 40.49 86.53c-2.334-1.787-9.008-7.128-15.683-14.947-4.745-5.553-8.507-11.22-11.207-16.85-3.338-6.973-5.035-13.89-5.035-20.556 0-8.165 3.221-15.907 9.066-21.805zm4.939 61.055c8.275 9.702 16.609 15.734 17.052 16.061.251.192.56.288.868.288.309 0 .618-.096.868-.288.444-.307 8.758-6.359 17.053-16.061 4.9-5.744 8.816-11.623 11.613-17.464 3.53-7.358 5.324-14.678 5.324-21.786 0-8.914-3.51-17.368-9.896-23.804C59.067 3.938 50.56.27 41.474.02 41.166 0 40.838 0 40.49 0c-.347 0-.675 0-.983.02-9.086.249-17.593 3.918-23.978 10.354-6.385 6.436-9.896 14.89-9.896 23.804 0 7.108 1.794 14.428 5.324 21.786 2.797 5.86 6.713 11.72 11.613 17.464z" fill="#9681BC"/><path d="M40.49 12.584c11.632 0 21.104 9.298 21.104 20.73 0 11.43-9.472 20.73-21.104 20.73s-21.103-9.3-21.103-20.73c0-11.432 9.471-20.73 21.103-20.73zm0 44.34c13.253 0 24.017-10.585 24.017-23.61 0-13.026-10.784-23.612-24.017-23.612-13.252 0-24.016 10.586-24.016 23.611 0 13.026 10.764 23.612 24.016 23.612z" fill="#9681BC"/><path d="M36.189 29.605a2.288 2.288 0 002.18-1.556l2.102-6.378 2.122 6.378c.309.942 1.177 1.556 2.18 1.556h6.848l-5.536 3.958a2.219 2.219 0 00-.83 2.517l2.122 6.398-5.536-3.958a2.325 2.325 0 00-2.701 0l-5.536 3.957 2.102-6.397a2.21 2.21 0 00-.83-2.517l-5.535-3.958h6.848zm-10.108 1.21l6.713 4.804-2.566 7.761c-.309.942.02 1.94.83 2.536.81.577 1.89.577 2.7 0l6.713-4.802 6.713 4.803c.405.288.868.441 1.35.441a2.31 2.31 0 001.35-.441 2.219 2.219 0 00.83-2.517l-2.565-7.762 6.713-4.803a2.218 2.218 0 00.83-2.517c-.31-.941-1.178-1.556-2.18-1.556h-8.295l-2.566-7.761a2.281 2.281 0 00-2.18-1.557c-.984 0-1.871.634-2.18 1.557l-2.565 7.761H27.43a2.288 2.288 0 00-2.18 1.556c-.309.903.039 1.921.83 2.498zM80.48 91.814l-9.685-18.04a4.309 4.309 0 00-3.8-2.248H62.79c-.81 0-1.466.634-1.466 1.44 0 .789.656 1.442 1.466 1.442h4.205c.502 0 .984.269 1.215.73l9.684 18.04a1.312 1.312 0 01-.038 1.326 1.367 1.367 0 01-1.177.653H4.302a1.367 1.367 0 01-1.177-.653c-.116-.193-.367-.73-.039-1.326l9.684-18.04c.232-.442.714-.711 1.215-.711h4.206c.81 0 1.466-.634 1.466-1.44 0-.789-.656-1.442-1.466-1.442h-4.206a4.309 4.309 0 00-3.8 2.248L.502 91.833a4.144 4.144 0 00.115 4.15c.791 1.287 2.16 2.036 3.685 2.036h72.377a4.309 4.309 0 003.684-2.036c.791-1.307.83-2.844.116-4.17z" fill="#9681BC"/></svg>