<svg width="92" height="98" fill="none" xmlns="http://www.w3.org/2000/svg"><path d="M51.469 51.733a3.08 3.08 0 002.935 2.107h17.113c.043 0 .13 0 .174.131.043.132-.022.176-.065.198l-13.83 9.943a3.035 3.035 0 00-1.13 3.424l5.283 16.088c.022.044.044.131-.065.197-.108.066-.174.022-.217 0l-13.83-9.942a3.063 3.063 0 00-1.804-.593 3.13 3.13 0 00-1.827.593l-13.83 9.942c-.043.022-.108.066-.217 0-.108-.087-.087-.153-.065-.197l5.284-16.088c.413-1.252-.044-2.634-1.13-3.424l-13.83-9.943c-.044-.022-.109-.088-.065-.198.043-.131.13-.131.174-.131h17.112a3.08 3.08 0 002.936-2.107l5.284-16.089c.021-.044.043-.131.174-.131.13 0 .152.087.174.131l5.262 16.089zM46.01 32.659c-1.37 0-2.523.834-2.936 2.107L37.79 50.855a.19.19 0 01-.173.131H20.505c-1.37 0-2.522.834-2.936 2.107a3.014 3.014 0 001.131 3.424l13.83 9.943a.178.178 0 01.065.198L27.31 82.746c-.413 1.273.021 2.612 1.13 3.424a3.08 3.08 0 003.632 0l13.83-9.943a.196.196 0 01.217 0l13.829 9.943a3.08 3.08 0 003.631 0c1.11-.79 1.544-2.13 1.13-3.424l-5.283-16.088a.178.178 0 01.065-.198l13.83-9.943c1.109-.79 1.543-2.129 1.13-3.424-.413-1.273-1.565-2.107-2.935-2.107H54.404c-.087 0-.152-.044-.174-.131l-5.284-16.089a3.072 3.072 0 00-2.935-2.107z" fill="#9681BC"/><path d="M2.914 22.936V12.38c0-1.339 1.109-2.436 2.457-2.436h3.892v1.624c0 3.029 2.5 5.487 5.567 5.487 3.065 0 5.566-2.458 5.566-5.487V9.943h9.676v1.624c0 3.029 2.5 5.487 5.567 5.487 3.066 0 5.566-2.458 5.566-5.487V9.943h9.677v1.624c0 3.029 2.5 5.487 5.566 5.487s5.567-2.458 5.567-5.487V9.943h9.676v1.624c0 3.029 2.5 5.487 5.566 5.487s5.567-2.458 5.567-5.487V9.943h3.892c1.348 0 2.457 1.097 2.457 2.436v10.557H2.913zm11.894-20.06c1.457 0 2.653 1.184 2.653 2.633v6.058c0 1.448-1.196 2.634-2.653 2.634s-2.653-1.186-2.653-2.634V5.509a2.638 2.638 0 012.653-2.634zm18.135 2.633c0-1.449 1.196-2.634 2.652-2.634 1.457 0 2.653 1.185 2.653 2.634v6.058c0 1.448-1.196 2.634-2.653 2.634-1.456 0-2.652-1.186-2.652-2.634V5.509zm20.809 0c0-1.449 1.196-2.634 2.653-2.634 1.456 0 2.652 1.185 2.652 2.634v6.058c0 1.448-1.196 2.634-2.652 2.634-1.457 0-2.653-1.186-2.653-2.634V5.509zm20.787 0c0-1.449 1.196-2.634 2.653-2.634s2.653 1.185 2.653 2.634v6.079c0 1.45-1.196 2.635-2.653 2.635s-2.653-1.186-2.653-2.634v-6.08zm12.112 1.558h-3.892V5.51c0-3.05-2.5-5.509-5.567-5.509-3.066 0-5.566 2.458-5.566 5.51v1.557H61.97V5.51c0-3.05-2.5-5.509-5.566-5.509s-5.567 2.458-5.567 5.51v1.557h-9.676V5.51c0-3.029-2.5-5.509-5.567-5.509-3.066 0-5.566 2.458-5.566 5.51v1.557h-9.655V5.51c0-3.05-2.5-5.509-5.566-5.509S9.263 2.458 9.263 5.51v1.557H5.371C2.414 7.067 0 9.437 0 12.38v20.17c0 .79.652 1.427 1.457 1.427.804 0 1.457-.636 1.457-1.426V25.81h86.194V81.1c0 .79.652 1.426 1.457 1.426.804 0 1.457-.636 1.457-1.426V12.379C92 9.438 89.608 7.067 86.65 7.067zm3.914 79.41c-.805 0-1.457.636-1.457 1.427v4.785c0 1.338-1.109 2.436-2.457 2.436H5.37c-1.348 0-2.457-1.098-2.457-2.436V39.288c0-.79-.653-1.427-1.457-1.427-.805 0-1.457.637-1.457 1.427v53.4C0 95.609 2.414 98 5.37 98h81.28c2.958 0 5.372-2.37 5.372-5.311v-4.785c-.022-.769-.674-1.427-1.457-1.427z" fill="#9681BC"/></svg>