<svg width="101" height="101" fill="none" xmlns="http://www.w3.org/2000/svg"><path d="M92.583 80.8h6.734c.926 0 1.683-.757 1.683-1.683v-20.2c0-.148-.021-.274-.042-.4l-5.05-20.2a1.688 1.688 0 00-1.641-1.284H66.68l-2.883-5.807a1.715 1.715 0 00-1.515-.926H54.56l7.217-7.217a1.69 1.69 0 000-2.378l-7.217-7.238h31.29c.926 0 1.683-.758 1.683-1.684 0-.925-.757-1.683-1.683-1.683h-70.7c-.926 0-1.683.758-1.683 1.683 0 .926.757 1.684 1.683 1.684h31.289l-7.217 7.217a1.69 1.69 0 000 2.378l7.217 7.217h-7.722c-.632 0-1.22.358-1.515.926l-2.883 5.828H6.733c-.778 0-1.452.526-1.64 1.284l-5.05 20.2a2.33 2.33 0 00-.043.4v20.2c0 .925.757 1.683 1.683 1.683h6.734a6.726 6.726 0 006.733 6.733 6.726 6.726 0 006.733-6.733h3.367a6.726 6.726 0 006.733 6.733 6.726 6.726 0 006.734-6.733h23.566a6.726 6.726 0 006.734 6.733A6.726 6.726 0 0075.75 80.8h3.367a6.726 6.726 0 006.733 6.733 6.726 6.726 0 006.733-6.733zM50.5 14.161l7.722 7.722-7.722 7.723-7.722-7.723 7.722-7.722zM39.748 33.667H61.23l1.684 3.366h-24.85l1.683-3.366zm-24.598 50.5a3.377 3.377 0 01-3.367-3.367h6.734a3.377 3.377 0 01-3.367 3.367zm8.417-26.934H10.563l2.525-10.1h10.479v10.1zm8.416 26.934a3.377 3.377 0 01-3.366-3.367h6.733a3.377 3.377 0 01-3.367 3.367zm-5.05-6.734v-30.3H40.4v30.3H26.933zm30.3-30.3v10.1H43.767v-10.1h13.466zM43.767 60.6h13.466v16.833H43.767V60.6zM60.6 77.433v-30.3h13.467v30.3H60.6zm27.312-30.3l2.525 10.1H77.433v-10.1h10.48zM69.017 84.167A3.377 3.377 0 0165.65 80.8h6.733a3.377 3.377 0 01-3.366 3.367zm8.416-6.734V60.6h15.15c.526 0 1.01-.232 1.326-.652.316-.4.442-.947.316-1.452l-3.367-13.467a1.688 1.688 0 00-1.641-1.283H11.783c-.778 0-1.451.526-1.64 1.283L6.774 58.496a1.653 1.653 0 00.316 1.452c.316.4.8.652 1.326.652h15.15v16.833h-20.2V59.127L8.037 40.4h84.904l4.671 18.727v18.306H77.433zm8.417 6.734a3.377 3.377 0 01-3.367-3.367h6.734a3.377 3.377 0 01-3.367 3.367z" fill="#9681BC"/><path d="M31.983 87.533h-30.3c-.926 0-1.683.758-1.683 1.684 0 .925.757 1.683 1.683 1.683h97.634c.926 0 1.683-.758 1.683-1.683 0-.926-.757-1.684-1.683-1.684H31.983z" fill="#9681BC"/></svg>