<svg width="113" height="113" fill="none" xmlns="http://www.w3.org/2000/svg"><path d="M33.547 73.45a5.626 5.626 0 00-5.297-3.767 5.604 5.604 0 00-5.297 3.767 5.2 5.2 0 000 3.767c1.012 2.919 4.214 4.473 7.156 3.46a5.61 5.61 0 003.461-3.46 5.324 5.324 0 00-.023-3.767zm-5.297 3.767a1.889 1.889 0 01-1.884-1.884 1.89 1.89 0 011.884-1.883c1.035 0 1.883.847 1.883 1.883a1.889 1.889 0 01-1.883 1.884zm-5.65-45.2H7.533V50.85h33.9V32.017H22.6zm0 15.066H11.3v-11.3h11.3v11.3zm15.066 0h-11.3v-11.3h11.3v11.3z" fill="#9681BC"/><path d="M112.576 47.554l-8.169-19.587a5.641 5.641 0 00-5.226-3.484H5.65A5.636 5.636 0 000 30.133v41.434a5.636 5.636 0 005.65 5.65h9.558c1.036 7.203 7.698 12.194 14.902 11.158a13.134 13.134 0 0011.159-11.158h30.439c1.036 7.203 7.698 12.194 14.902 11.158a13.134 13.134 0 0011.159-11.158h9.581a5.636 5.636 0 005.65-5.65V49.72c0-.753-.141-1.483-.424-2.166zm-8.993-11.77l4.709 11.3H90.4v-11.3h13.183zM37.478 77.216c-1.035 5.085-6.003 8.38-11.111 7.345-5.109-1.036-8.381-6.004-7.345-11.112 1.036-5.109 6.003-8.38 11.111-7.345a9.425 9.425 0 017.534 9.228c0 .636-.071 1.272-.189 1.884zM45.2 73.45h-3.908c-1.036-7.204-7.698-12.195-14.902-11.159A13.134 13.134 0 0015.231 73.45H5.65a1.889 1.889 0 01-1.883-1.883V58.383H45.2V73.45zm18.833-18.833V73.45H48.967V35.783h15.066v18.834zm29.945 22.6c-1.035 5.085-6.003 8.38-11.111 7.345-5.109-1.036-8.381-6.004-7.345-11.112 1.035-5.085 6.003-8.38 11.111-7.345a9.425 9.425 0 017.534 9.228c0 .636-.071 1.272-.189 1.884zm15.255-5.65a1.888 1.888 0 01-1.883 1.883h-9.558c-1.036-7.204-7.698-12.195-14.902-11.159A13.134 13.134 0 0071.731 73.45H67.8V58.383h41.433v13.184zm0-16.95H67.8v-22.6H45.2v22.6H3.767V30.133c0-1.035.847-1.883 1.883-1.883h93.531c.753 0 1.436.447 1.742 1.154l1.083 2.613h-30.44V50.85h37.667v3.767zm-22.6-18.834v11.3h-11.3v-11.3h11.3z" fill="#9681BC"/><path d="M90.046 73.45a5.626 5.626 0 00-5.296-3.767 5.626 5.626 0 00-5.297 3.767 5.2 5.2 0 000 3.767c1.012 2.919 4.214 4.473 7.156 3.46a5.61 5.61 0 003.461-3.46 5.324 5.324 0 00-.023-3.767zm-5.296 3.767a1.889 1.889 0 01-1.884-1.884 1.89 1.89 0 011.884-1.883c1.035 0 1.883.847 1.883 1.883a1.889 1.889 0 01-1.883 1.884z" fill="#9681BC"/></svg>