<svg width="97" height="97" fill="none" xmlns="http://www.w3.org/2000/svg"><g clip-path="url(#clip0)"><path d="M37.227 25.898l-6.46 11.31a6.357 6.357 0 00-.644 4.907c.075.285.19.55.303.815l-5.077 17.392c-7.162-1.27-14.153 2.974-16.312 9.927L4.243 85.387a4.861 4.861 0 003.089 6.062l8.468 2.842c2.823 3.183 7.654 3.618 11.007.985a8.045 8.045 0 001.63-10.931L39.633 45.96a6.34 6.34 0 002.312-2.33l4.982-8.715 4.433-.814-16.312 54.562a6.463 6.463 0 00.493 4.926 6.414 6.414 0 003.827 3.126 6.25 6.25 0 001.876.284 6.545 6.545 0 006.195-4.604l8.014-26.694 8.885 7.256 2.842 18.586a6.43 6.43 0 006.403 5.475c.341 0 .663-.019.985-.076 3.524-.55 5.95-3.846 5.419-7.37l-3.24-21.029a6.55 6.55 0 00-2.311-3.997l-10.989-9L66.915 42.4l5.115 5.645a6.456 6.456 0 004.774 2.103h9.7c3.58 0 6.46-2.898 6.46-6.46a6.468 6.468 0 00-6.46-6.46h-6.84L67.9 24.25a12.145 12.145 0 0011.878-9.435 12.166 12.166 0 00-6.574-13.678 12.129 12.129 0 00-14.777 3.39c-3.543 4.434-3.524 10.743.019 15.176l-16.767 3.031a6.447 6.447 0 00-4.452 3.164zm-5.835 36.906a16.725 16.725 0 00-2.918-1.592l4.472-15.345c.075.038.132.113.208.151a6.59 6.59 0 002.88.834l-4.642 15.952zM8.374 88.38a1.621 1.621 0 01-1.024-2.027l4.775-15.138c1.818-5.873 8.032-9.188 13.924-7.445 1.592.474 3.089 1.25 4.358 2.311l-4.623 15.82a8.155 8.155 0 00-3.978-1.1c-4.471 0-8.071 3.62-8.09 8.09 0 .436.057.872.133 1.308l-5.475-1.82zm13.45 5.38a4.86 4.86 0 01-4.85-4.85 4.86 4.86 0 014.85-4.85 4.86 4.86 0 014.85 4.85c0 2.69-2.178 4.85-4.85 4.85zM67.9 3.24a8.886 8.886 0 11-.001 17.771 8.886 8.886 0 010-17.771zm-7.976 19.475a3.266 3.266 0 013.031.91c.057.076.133.151.208.227L77.751 39.9c.303.34.74.53 1.194.53h7.54a3.24 3.24 0 110 6.48h-9.7c-.91 0-1.78-.38-2.387-1.061l-7.105-7.844a1.637 1.637 0 00-1.572-.492 1.614 1.614 0 00-1.175 1.155L60.037 55.7c-.17.607.057 1.27.55 1.667L72.39 67.01a3.343 3.343 0 011.155 2.008l3.24 21.01a3.271 3.271 0 01-.606 2.425 3.168 3.168 0 01-2.141 1.27c-.152.018-.303.037-.455.037a3.253 3.253 0 01-3.201-2.728l-2.937-19.191a1.59 1.59 0 00-.568-1.004l-11.235-9.189a1.584 1.584 0 00-1.497-.284 1.623 1.623 0 00-1.08 1.08l-8.714 29.024a3.226 3.226 0 01-4.017 2.16 3.26 3.26 0 01-1.913-1.554 3.27 3.27 0 01-.246-2.463L55.3 32.53c.17-.53.038-1.118-.341-1.535a1.648 1.648 0 00-1.497-.511l-7.767 1.402c-.474.076-.872.379-1.118.796l-5.361 9.378a3.256 3.256 0 01-2.823 1.8 3.205 3.205 0 01-2.899-1.668 3.2 3.2 0 01.133-3.334l6.46-11.33c.474-.814 1.27-1.401 2.217-1.553l17.619-3.259z" fill="#9681BC"/></g><defs><clipPath id="clip0"><path fill="#fff" d="M0 0h97v97H0z"/></clipPath></defs></svg>