<svg width="134" height="134" fill="none" xmlns="http://www.w3.org/2000/svg"><g clip-path="url(#clip0)" fill="#7EB3FF"><path d="M38.45 25.093c-.73 2.254.04 4.607 1.96 5.996l11.376 8.227-4.358 13.313c-.738 2.255.026 4.612 1.944 6.006 1.919 1.394 4.397 1.392 6.313-.006L67 50.369l11.315 8.26c.96.7 2.06 1.05 3.16 1.05a5.348 5.348 0 003.153-1.044c1.918-1.394 2.682-3.751 1.944-6.005l-4.358-13.313 11.377-8.228c1.92-1.389 2.688-3.742 1.959-5.996-.73-2.254-2.733-3.71-5.102-3.71H76.403l-4.3-13.306C71.372 5.822 69.37 4.365 67 4.365c-2.37 0-4.373 1.457-5.102 3.712l-4.301 13.305H43.552c-2.37 0-4.372 1.456-5.102 3.71zm21.052 1.523a2.618 2.618 0 002.49-1.812L66.88 9.687a.231.231 0 01.03-.068c.034-.027.149-.027.181 0a.225.225 0 01.031.068l4.887 15.117a2.618 2.618 0 002.49 1.812h15.95a.23.23 0 01.075.009c.035.023.07.132.056.171a.21.21 0 01-.056.05L77.6 36.194a2.617 2.617 0 00-.954 2.935l4.952 15.129a.226.226 0 01.015.073c-.01.04-.092.115-.145.106a.223.223 0 01-.066-.037l-12.858-9.384a2.613 2.613 0 00-3.086 0L52.599 54.4a.242.242 0 01-.066.037c-.03-.005-.135-.065-.146-.105a.26.26 0 01.015-.074l4.953-15.129a2.617 2.617 0 00-.954-2.935l-12.925-9.347a.237.237 0 01-.055-.05c-.015-.04.02-.149.056-.172a.22.22 0 01.074-.009h15.95zm9.959 58.704H64.54a2.617 2.617 0 000 5.235h2.305v20.414a2.617 2.617 0 005.234 0V87.938a2.617 2.617 0 00-2.617-2.618zm14.943-71.357c.67 0 1.34-.255 1.85-.766l8.73-8.73a2.618 2.618 0 00-3.701-3.7l-8.73 8.728a2.618 2.618 0 001.851 4.468zm-36.921-.766a2.61 2.61 0 001.851.767 2.618 2.618 0 001.85-4.468L42.457.765a2.618 2.618 0 00-3.702 3.702l8.73 8.729zm44.279 29.176a2.617 2.617 0 001.23 3.491l9.636 4.617a2.617 2.617 0 102.261-4.72l-9.636-4.617a2.618 2.618 0 00-3.491 1.23zm-61.519 8.366a2.61 2.61 0 001.129-.258l9.636-4.617a2.617 2.617 0 00-2.261-4.72L29.11 45.76a2.617 2.617 0 001.133 4.978z"/><path d="M131.383 84.797h-36.64V70.14h3.925a2.617 2.617 0 000-5.235H35.332a2.618 2.618 0 000 5.235h3.926v14.656H2.618A2.617 2.617 0 000 87.414v43.969A2.617 2.617 0 002.617 134h128.766a2.617 2.617 0 002.617-2.617V87.414a2.617 2.617 0 00-2.617-2.617zM5.234 90.03h34.024v38.735H5.234V90.031zm123.532 38.735H94.742v-7.59a2.617 2.617 0 00-5.234 0v7.59H44.492V70.141h45.016v27.48a2.617 2.617 0 005.234 0v-7.59h34.024v38.735z"/><path d="M92.125 106.781c-.688 0-1.364.28-1.85.767a2.637 2.637 0 00-.767 1.85c0 .689.28 1.364.767 1.851a2.64 2.64 0 001.85.767c.688 0 1.364-.28 1.85-.767a2.637 2.637 0 00.767-1.851c0-.688-.28-1.363-.767-1.85a2.635 2.635 0 00-1.85-.767z"/></g><defs><clipPath id="clip0"><path fill="#fff" d="M0 0h134v134H0z"/></clipPath></defs></svg>