<svg width="131" height="108" fill="none" xmlns="http://www.w3.org/2000/svg"><path d="M129.749 24.48L88.323 8.609a1.943 1.943 0 00-2.513 1.129 1.958 1.958 0 001.126 2.525l36.657 14.045-25.376 9.725L66.303 21.51a1.94 1.94 0 00-2.573.974 1.96 1.96 0 00.97 2.59l28.397 12.921L65.5 48.57 7.407 26.308 65.5 4.048l14.315 5.487a1.955 1.955 0 001.387-3.654L66.193.128a1.939 1.939 0 00-1.386 0L1.25 24.48A1.961 1.961 0 000 26.308v8.93c0 .81.499 1.538 1.251 1.829l19.847 7.603v6.776c0 1.08.87 1.957 1.945 1.957a1.953 1.953 0 001.947-1.957v-5.284l39.817 15.256a1.95 1.95 0 001.386 0l30.015-11.5v30.945c-9.423 4.971-19.99 7.635-30.708 7.635-14.627 0-28.976-4.955-40.51-13.976V59.266a1.95 1.95 0 00-1.947-1.954 1.95 1.95 0 00-1.945 1.954v16.203c0 .594.269 1.154.73 1.524C34.172 86.932 49.682 92.406 65.5 92.406c10.67 0 21.195-2.494 30.708-7.163v7.914a7.437 7.437 0 00-5.447 7.167c0 4.096 3.316 7.431 7.392 7.431 4.076 0 7.392-3.332 7.392-7.431a7.437 7.437 0 00-5.448-7.167v-9.98a69.53 69.53 0 009.076-6.184c.46-.37.729-.933.729-1.524V44.668l19.844-7.604a1.952 1.952 0 001.251-1.828v-8.928a1.954 1.954 0 00-1.248-1.828zm-28.096 75.847a3.514 3.514 0 01-3.503 3.517c-1.929 0-3.5-1.579-3.5-3.517 0-1.942 1.571-3.52 3.5-3.52 1.932 0 3.503 1.578 3.503 3.52zM3.892 29.147l59.663 22.862v4.745L3.893 33.889v-4.742zM67.445 56.75v-4.744l28.76-11.021v4.744L67.445 56.75zm38.568 17.769a65.699 65.699 0 01-5.913 4.117V48.424l5.913-2.266v28.36zm-5.916-30.281v-4.742l27.011-10.35v4.744l-27.011 10.35z" fill="#A48ED2"/></svg>