<svg width="69" height="109" fill="none" xmlns="http://www.w3.org/2000/svg"><g clip-path="url(#clip0)" fill="#A48ED2"><path d="M63.553 10.9H5.447A5.456 5.456 0 010 5.45 5.456 5.456 0 015.447 0h58.106A5.456 5.456 0 0169 5.45a5.456 5.456 0 01-5.447 5.45zM5.447 3.634a1.817 1.817 0 000 3.632h58.106a1.817 1.817 0 000-3.632H5.447zM63.553 109H5.447A5.456 5.456 0 010 103.55a5.456 5.456 0 015.447-5.45h58.106A5.456 5.456 0 0169 103.55a5.456 5.456 0 01-5.447 5.45zm-58.106-7.266a1.817 1.817 0 000 3.632h58.106a1.817 1.817 0 000-3.632H5.447z"/><path d="M59.92 101.734H9.08a1.814 1.814 0 01-1.816-1.816v-4.14c0-13.047 5.078-25.31 14.298-34.534l1.825-1.826a7.006 7.006 0 002.037-4.918c0-1.83-.743-3.623-2.037-4.918l-1.825-1.826c-9.223-9.225-14.3-21.487-14.3-34.533V9.084c0-1.005.813-1.816 1.815-1.816H59.92c1.003 0 1.816.811 1.816 1.816v4.14c0 13.045-5.078 25.31-14.298 34.534l-1.825 1.826a6.91 6.91 0 00-2.037 4.918 6.91 6.91 0 002.037 4.918l1.825 1.826c9.22 9.225 14.297 21.49 14.297 34.533v4.141a1.815 1.815 0 01-1.815 1.814zM10.895 98.1h47.21v-2.323c0-12.073-4.698-23.426-13.233-31.963l-1.825-1.827a10.51 10.51 0 01-3.1-7.487c0-2.83 1.1-5.488 3.1-7.487l1.825-1.827c8.535-8.539 13.233-19.89 13.233-31.963V10.9h-47.21v2.323c0 12.073 4.698 23.426 13.233 31.963l1.825 1.827c2 1.999 3.1 4.658 3.1 7.487 0 2.83-1.1 5.488-3.1 7.487l-1.825 1.827c-8.533 8.539-13.231 19.888-13.231 31.963V98.1h-.002z"/><path d="M34.499 54.5a1.814 1.814 0 01-1.815-1.816c0-3.8-1.479-7.373-4.164-10.055l-1.824-1.827c-2.826-2.827-4.788-6.01-6.49-9.026a1.93 1.93 0 01-.228-1.058s.03-.392.192-.997c.63-2.324 2.304-4.123 4.59-4.932a7.756 7.756 0 017.14 1.051c1.667 1.207 5.872 3.228 15.306 3.228 1.826 0 2.452 1.077 2.635 1.539.802 2.027-1.17 4.177-5.865 8.592a83.057 83.057 0 00-1.676 1.603l-1.826 1.827a14.133 14.133 0 00-4.162 10.055 1.81 1.81 0 01-1.813 1.816zM23.704 30.58c1.698 2.963 3.33 5.42 5.56 7.653l1.824 1.826a17.86 17.86 0 013.41 4.756 17.888 17.888 0 013.412-4.756l1.826-1.826c.468-.469 1.083-1.048 1.753-1.68 1.015-.954 2.777-2.612 3.898-3.877-8.737-.242-13.299-2.218-15.612-3.894a4.127 4.127 0 00-3.8-.57c-.66.232-1.822.852-2.27 2.367zm23.583 2.124h.02-.02zm5.25 61.762H16.46a1.82 1.82 0 01-1.332-.58 1.82 1.82 0 01-.477-1.376c.454-5.89 2.816-8.34 5.548-11.173.368-.383.75-.779 1.145-1.2a12.15 12.15 0 018.84-3.837h8.627a12.15 12.15 0 018.841 3.837c.394.421.78.82 1.147 1.202 2.73 2.834 5.092 5.28 5.548 11.169a1.816 1.816 0 01-1.81 1.959zm-34.008-3.632h31.942c-.617-3.17-2.083-4.688-4.282-6.97-.383-.398-.778-.807-1.187-1.245a8.513 8.513 0 00-6.19-2.683h-8.626a8.497 8.497 0 00-6.188 2.685c-.407.434-.802.847-1.183 1.243-2.203 2.278-3.669 3.798-4.286 6.97zm15.917-27.25a1.814 1.814 0 01-1.815-1.816v-1.816a1.814 1.814 0 113.63 0v1.816a1.816 1.816 0 01-1.815 1.816zm0 9.082a1.814 1.814 0 01-1.815-1.816v-1.816a1.814 1.814 0 113.63 0v1.816a1.814 1.814 0 01-1.815 1.816z"/></g><defs><clipPath id="clip0"><path fill="#fff" d="M0 0h69v109H0z"/></clipPath></defs></svg>