<svg width="175" height="175" fill="none" xmlns="http://www.w3.org/2000/svg"><path d="M159.406 37.877a3.413 3.413 0 00-5.623 3.872c9.267 13.455 14.165 29.237 14.165 45.639 0 44.421-36.139 80.56-80.56 80.56-44.422 0-80.56-36.139-80.56-80.56 0-44.422 36.138-80.56 80.56-80.56 16.394 0 32.169 4.893 45.619 14.15a3.413 3.413 0 103.871-5.623C122.284 5.31 105.17 0 87.388 0 64.046 0 42.1 9.09 25.595 25.595 9.09 42.101 0 64.045 0 87.388c0 23.342 9.09 45.287 25.595 61.792 16.506 16.505 38.45 25.595 61.793 25.595 23.342 0 45.287-9.09 61.792-25.595 16.506-16.505 25.595-38.45 25.595-61.792 0-17.792-5.314-34.912-15.369-49.51z" fill="#9681BC"/><path d="M42.093 30.95a3.415 3.415 0 00-.276 5.075l70.989 70.989.016.016 25.927 25.927a3.414 3.414 0 005.075-.276c10.273-12.784 15.931-28.87 15.931-45.293 0-39.904-32.464-72.368-72.368-72.368-16.424 0-32.51 5.657-45.294 15.93zm91.036 34.954v43.676l-15.944-7.843-7.268-7.268V77.322l23.212-11.418zm-30.039 9.293v12.445L78.573 63.126H95.34c4.274 0 7.751 3.477 7.751 7.75v4.321zm49.838 12.19c0 13.809-4.177 26.859-12.118 37.975l-9.093-9.092c.476.103.958.157 1.44.157a6.782 6.782 0 003.591-1.033 6.764 6.764 0 003.208-5.776V65.866a6.763 6.763 0 00-3.208-5.776 6.766 6.766 0 00-6.599-.33l-20.281 9.977c-.584-7.507-6.875-13.439-14.53-13.439H71.747L49.412 33.964c11.117-7.94 24.166-12.117 37.975-12.117 36.139 0 65.541 29.401 65.541 65.54zM33.426 40.823a3.414 3.414 0 00-2.476 1.27c-10.273 12.785-15.93 28.87-15.93 45.295 0 39.903 32.464 72.368 72.367 72.368 16.424 0 32.51-5.658 45.295-15.931a3.416 3.416 0 00.275-5.075L36.025 41.818a3.41 3.41 0 00-2.6-.995zm53.961 112.105c-36.139 0-65.54-29.401-65.54-65.54 0-13.809 4.176-26.86 12.118-37.975l8.574 8.575c-4.618 2.438-7.72 7.273-7.72 12.888V103.9c0 8.038 6.539 14.578 14.577 14.578H95.34a14.47 14.47 0 006.276-1.414l23.747 23.748c-11.116 7.941-24.166 12.117-37.975 12.117zm8.767-41.325c-.269.028-.54.047-.815.047H49.396c-4.273 0-7.75-3.477-7.75-7.751V70.876a7.7 7.7 0 016.188-7.593l48.32 48.32z" fill="#9681BC"/><path d="M57.236 102.749c.898 0 1.775-.366 2.413-1.001.635-.634 1-1.515 1-2.413a3.44 3.44 0 00-1-2.413 3.44 3.44 0 00-2.413-1c-.901 0-1.779.365-2.414 1-.638.635-1 1.515-1 2.413 0 .898.362 1.779 1 2.413a3.44 3.44 0 002.414 1.001zm89.53-71.327a3.44 3.44 0 002.413-1c.635-.635 1-1.513 1-2.414a3.44 3.44 0 00-1-2.413 3.441 3.441 0 00-2.413-1 3.44 3.44 0 00-2.414 1 3.44 3.44 0 00-1 2.413c0 .902.365 1.779 1 2.414.635.634 1.516 1 2.414 1z" fill="#9681BC"/></svg>